<?xml version="1.0" standalone="no"?>
<!DOCTYPE svg PUBLIC "-//W3C//DTD SVG 20010904//EN"
 "http://www.w3.org/TR/2001/REC-SVG-20010904/DTD/svg10.dtd">
<svg version="1.0" xmlns="http://www.w3.org/2000/svg"
 width="2048.000000pt" height="2048.000000pt" viewBox="0 0 2048.000000 2048.000000"
 preserveAspectRatio="xMidYMid meet">
<metadata>
Created by potrace 1.16, written by Peter Selinger 2001-2019
</metadata>
<g transform="translate(0.000000,2048.000000) scale(0.100000,-0.100000)"
fill="#FFFFFF" stroke="none">
<path d="M9113 16690 c0 -36 2 -50 4 -32 2 17 2 47 0 65 -2 17 -4 3 -4 -33z"/>
<path d="M10265 16121 c-22 -5 -80 -11 -130 -14 -455 -30 -1026 -172 -1485
-370 -648 -280 -1237 -721 -1694 -1270 -555 -667 -940 -1483 -1220 -2587 -51
-201 -121 -484 -146 -595 -117 -510 -192 -773 -259 -903 l-21 -42 45 32 c46
33 59 52 28 42 -16 -5 -16 -4 1 10 10 8 23 13 29 9 6 -3 7 -2 4 4 -9 15 49 67
64 58 7 -5 10 -4 6 2 -9 14 60 66 75 57 6 -4 8 -3 5 3 -17 27 277 186 488 266
252 95 422 127 715 134 216 6 314 -3 535 -49 214 -44 499 -162 690 -287 130
-84 353 -290 431 -396 16 -22 32 -42 35 -45 3 -3 33 -46 67 -96 119 -178 220
-404 277 -624 221 -856 -72 -1934 -729 -2675 -287 -325 -623 -577 -1012 -761
-144 -67 -264 -112 -466 -173 -242 -73 -457 -111 -736 -131 -214 -16 -267 -7
-324 52 -20 21 -41 38 -48 38 -12 0 -84 69 -78 75 2 2 95 9 208 15 233 12 240
13 445 46 419 69 787 195 1089 373 38 22 74 37 80 34 6 -3 8 -3 4 1 -3 4 44
42 105 83 221 149 406 314 578 515 129 150 213 265 296 403 293 490 443 1011
443 1539 0 420 -103 778 -312 1090 -143 212 -333 386 -583 532 -138 81 -387
170 -594 211 -125 25 -155 27 -376 28 -251 0 -305 -6 -489 -51 -259 -64 -545
-190 -753 -332 -46 -31 -98 -65 -116 -76 -18 -10 -49 -33 -69 -52 -20 -18 -54
-42 -75 -53 -21 -10 -46 -28 -57 -40 -10 -11 -22 -18 -26 -16 -5 3 -25 -19
-46 -47 -21 -29 -51 -66 -66 -81 -102 -104 -317 -433 -476 -727 -45 -84 -255
-530 -297 -630 -46 -112 -159 -310 -176 -310 -4 0 -19 -20 -33 -44 -36 -62
-54 -65 -123 -19 -32 20 -67 42 -79 49 -50 27 -186 67 -266 77 -74 9 -95 8
-148 -6 -34 -10 -65 -15 -71 -12 -5 4 -9 -1 -9 -11 0 -11 -6 -15 -20 -11 -13
3 -20 0 -20 -10 0 -9 -6 -13 -14 -10 -11 4 -13 1 -9 -10 5 -13 2 -15 -11 -10
-10 4 -15 3 -11 -3 6 -9 -16 -42 -60 -92 -8 -10 -15 -24 -15 -30 0 -7 -7 -33
-16 -58 -19 -53 -13 -127 13 -187 49 -107 105 -168 268 -288 22 -16 49 -37 59
-47 11 -10 25 -18 32 -18 7 0 20 -10 28 -21 13 -19 13 -24 0 -44 -21 -32 -60
-48 -86 -34 -14 7 -69 10 -162 7 -125 -4 -146 -7 -186 -29 -25 -13 -48 -28
-51 -33 -4 -5 -17 -6 -29 -3 -16 4 -20 2 -16 -8 3 -9 0 -12 -10 -8 -10 4 -12
0 -7 -13 5 -14 3 -16 -11 -11 -10 4 -15 3 -11 -3 3 -6 3 -15 -1 -21 -4 -8 -9
-7 -15 2 -7 11 -9 11 -9 1 0 -23 -42 -112 -50 -107 -4 2 -7 -41 -6 -98 2 -88
5 -108 26 -146 28 -49 105 -123 150 -143 17 -7 30 -16 30 -19 0 -4 12 -9 28
-13 15 -3 35 -12 45 -20 17 -13 17 -17 3 -60 -32 -95 -14 -193 51 -271 32 -38
127 -115 143 -115 5 0 10 -3 10 -7 0 -5 10 -13 23 -19 242 -122 266 -132 507
-219 275 -99 354 -121 710 -197 154 -33 211 -40 440 -58 80 -6 157 -12 172
-14 16 -2 78 -43 155 -102 173 -133 444 -313 651 -430 119 -68 434 -230 465
-240 12 -4 71 -31 132 -60 60 -30 113 -54 116 -54 4 0 33 -12 65 -27 33 -15
61 -28 64 -29 3 0 12 -4 20 -7 143 -59 654 -227 691 -227 6 0 25 -6 42 -14 35
-16 291 -78 512 -125 317 -68 750 -132 1090 -160 66 -6 147 -13 180 -16 142
-13 932 -17 1123 -6 466 28 936 91 1306 175 395 91 853 239 1186 386 77 34
316 151 365 178 295 166 408 239 628 404 361 273 714 646 919 971 37 59 68
110 68 113 0 3 10 20 22 36 11 17 22 41 24 54 1 14 43 122 93 242 49 119 106
267 127 327 21 63 48 122 62 137 20 22 23 30 13 41 -9 11 -3 46 28 158 41 152
107 427 121 513 5 28 16 89 25 136 21 119 51 358 67 535 8 96 13 304 13 580
-1 356 -5 476 -23 700 -22 265 -52 543 -72 678 -18 117 -24 245 -12 259 5 7
15 38 20 69 13 68 2 162 -34 302 -14 56 -32 129 -40 162 -8 33 -29 107 -46
165 -17 58 -44 150 -60 205 -53 178 -194 596 -253 745 -57 145 -62 158 -107
260 -14 30 -35 82 -48 115 -57 143 -302 618 -393 762 -15 24 -27 45 -27 47 0
6 -174 265 -235 350 -327 456 -739 863 -1165 1151 -63 43 -117 81 -120 84 -3
3 -14 11 -25 17 -244 134 -443 237 -535 276 -19 9 -56 25 -82 37 -26 11 -51
21 -54 21 -3 0 -20 6 -37 14 -111 48 -352 133 -404 142 -15 3 -32 9 -38 13 -5
5 -23 11 -40 14 -16 3 -59 12 -95 21 -36 10 -83 21 -105 26 -22 5 -53 12 -70
16 -35 8 -40 9 -125 25 -36 6 -74 15 -85 20 -11 4 -40 10 -65 13 -77 10 -230
26 -350 37 -142 14 -660 21 -715 10z m3515 -2291 c0 -5 18 -10 40 -10 22 0 40
-4 40 -10 0 -5 8 -10 18 -10 10 0 24 -9 32 -20 8 -11 20 -20 27 -20 17 0 203
-186 203 -203 0 -7 9 -19 20 -27 11 -8 20 -22 20 -32 0 -10 5 -18 10 -18 6 0
10 -9 10 -20 0 -11 5 -20 10 -20 6 0 10 -9 10 -20 0 -11 5 -20 10 -20 6 0 10
-9 10 -20 0 -11 5 -20 10 -20 6 0 10 -18 10 -40 0 -22 5 -40 10 -40 6 0 10
-18 10 -40 0 -22 5 -40 10 -40 6 0 10 -60 10 -160 0 -100 -4 -160 -10 -160 -5
0 -10 -18 -10 -40 0 -22 -4 -40 -10 -40 -5 0 -10 -13 -10 -30 0 -16 -4 -30
-10 -30 -5 0 -10 -9 -10 -20 0 -11 -4 -20 -10 -20 -5 0 -10 -9 -10 -20 0 -11
-4 -20 -10 -20 -5 0 -10 -7 -10 -15 0 -20 -165 -185 -185 -185 -8 0 -15 -4
-15 -10 0 -5 -9 -10 -20 -10 -11 0 -20 -4 -20 -10 0 -5 -13 -10 -30 -10 -16 0
-30 -4 -30 -10 0 -5 -22 -10 -50 -10 -27 0 -50 5 -50 10 0 6 -17 10 -38 10
-26 0 -42 6 -52 20 -8 11 -22 20 -32 20 -10 0 -18 5 -18 10 0 6 -8 10 -18 10
-10 0 -24 9 -32 20 -8 11 -20 20 -27 20 -17 0 -143 126 -143 143 0 7 -9 19
-20 27 -11 8 -20 22 -20 32 0 10 -4 18 -10 18 -5 0 -10 9 -10 20 0 11 -4 20
-10 20 -5 0 -10 9 -10 20 0 11 -4 20 -10 20 -5 0 -10 9 -10 20 0 11 -4 20 -10
20 -5 0 -10 18 -10 40 0 22 -4 40 -10 40 -5 0 -10 18 -10 40 0 22 -4 40 -10
40 -6 0 -10 70 -10 190 0 120 4 190 10 190 6 0 10 18 10 40 0 22 5 40 10 40 6
0 10 9 10 20 0 11 5 20 10 20 6 0 10 8 10 18 0 10 9 24 20 32 11 8 20 25 20
37 0 27 160 193 185 193 8 0 15 5 15 10 0 6 14 10 30 10 17 0 30 5 30 10 0 6
30 10 70 10 40 0 70 -4 70 -10z m-3540 -420 c0 -5 14 -10 30 -10 17 0 30 -4
30 -10 0 -5 14 -10 30 -10 17 0 30 -4 30 -10 0 -5 8 -10 18 -10 10 0 24 -9 32
-20 8 -11 20 -20 27 -20 18 0 243 -227 243 -245 0 -8 5 -15 10 -15 6 0 10 -8
10 -18 0 -10 9 -24 20 -32 11 -8 20 -22 20 -32 0 -10 5 -18 10 -18 6 0 10 -9
10 -20 0 -11 5 -20 10 -20 6 0 10 -13 10 -30 0 -16 5 -30 10 -30 6 0 10 -13
10 -30 0 -16 5 -30 10 -30 6 0 10 -18 10 -40 0 -22 5 -40 10 -40 6 0 10 -22
10 -50 0 -27 5 -50 10 -50 6 0 10 -47 10 -120 0 -73 -4 -120 -10 -120 -6 0
-10 -27 -10 -60 0 -33 -4 -60 -10 -60 -5 0 -10 -13 -10 -30 0 -16 -4 -30 -10
-30 -5 0 -10 -13 -10 -30 0 -16 -4 -30 -10 -30 -5 0 -10 -9 -10 -20 0 -11 -4
-20 -10 -20 -5 0 -10 -9 -10 -20 0 -11 -4 -20 -10 -20 -5 0 -10 -8 -10 -18 0
-10 -9 -24 -20 -32 -11 -8 -20 -20 -20 -27 0 -19 -186 -203 -205 -203 -8 0
-15 -4 -15 -10 0 -5 -9 -10 -20 -10 -11 0 -20 -4 -20 -10 0 -5 -13 -10 -30
-10 -16 0 -30 -4 -30 -10 0 -5 -9 -10 -20 -10 -11 0 -20 -4 -20 -10 0 -6 -43
-10 -110 -10 -67 0 -110 4 -110 10 0 6 -13 10 -30 10 -16 0 -30 5 -30 10 0 6
-9 10 -20 10 -11 0 -20 5 -20 10 0 6 -9 10 -20 10 -11 0 -20 5 -20 10 0 6 -9
10 -20 10 -11 0 -20 5 -20 10 0 6 -7 10 -16 10 -9 0 -29 14 -44 30 -15 17 -33
30 -39 30 -16 0 -161 147 -161 163 0 7 -9 19 -20 27 -11 8 -20 22 -20 32 0 10
-4 18 -10 18 -5 0 -10 9 -10 20 0 11 -4 20 -10 20 -5 0 -10 9 -10 20 0 11 -4
20 -10 20 -5 0 -10 9 -10 20 0 11 -4 20 -10 20 -5 0 -10 9 -10 20 0 11 -4 20
-10 20 -5 0 -10 18 -10 40 0 22 -4 40 -10 40 -5 0 -10 23 -10 50 0 28 -4 50
-10 50 -6 0 -10 57 -10 150 0 93 4 150 10 150 6 0 10 23 10 50 0 28 5 50 10
50 6 0 10 18 10 40 0 22 5 40 10 40 6 0 10 9 10 20 0 11 5 20 10 20 6 0 10 14
10 30 0 17 5 30 10 30 6 0 10 8 10 18 0 10 9 24 20 32 11 8 20 22 20 32 0 10
5 18 10 18 6 0 10 7 10 15 0 19 104 125 123 125 7 0 19 9 27 20 8 11 21 20 28
20 8 0 27 14 42 30 15 17 35 30 44 30 9 0 16 5 16 10 0 6 14 10 30 10 17 0 30
5 30 10 0 6 18 10 40 10 22 0 40 5 40 10 0 6 33 10 80 10 47 0 80 -4 80 -10z
m2820 -1340 c0 -5 16 -10 35 -10 29 0 44 -9 80 -45 l45 -44 0 -76 c0 -43 -4
-75 -10 -75 -5 0 -10 -18 -10 -40 0 -22 -4 -40 -10 -40 -5 0 -10 -13 -10 -30
0 -16 -4 -30 -10 -30 -5 0 -10 -9 -10 -20 0 -11 -4 -20 -10 -20 -5 0 -10 -13
-10 -30 0 -16 -4 -30 -10 -30 -5 0 -10 -13 -10 -30 0 -16 -4 -30 -10 -30 -5 0
-10 -9 -10 -20 0 -11 -4 -20 -10 -20 -5 0 -10 -9 -10 -20 0 -11 -4 -20 -10
-20 -5 0 -10 -9 -10 -20 0 -11 -4 -20 -10 -20 -5 0 -10 -9 -10 -20 0 -11 -4
-20 -10 -20 -5 0 -10 -8 -10 -18 0 -10 -9 -24 -20 -32 -11 -8 -20 -21 -20 -30
0 -9 -9 -22 -20 -30 -11 -8 -20 -20 -20 -27 0 -17 -106 -123 -123 -123 -7 0
-19 -9 -27 -20 -8 -12 -26 -20 -42 -20 -15 0 -28 -4 -28 -10 0 -6 -27 -10 -60
-10 -33 0 -60 4 -60 10 0 6 -13 10 -30 10 -16 0 -30 5 -30 10 0 6 -9 10 -20
10 -11 0 -20 5 -20 10 0 6 -9 10 -20 10 -11 0 -20 5 -20 10 0 6 -9 10 -20 10
-11 0 -20 5 -20 10 0 6 -8 10 -18 10 -10 0 -24 9 -32 20 -8 11 -22 20 -32 20
-10 0 -18 5 -18 10 0 6 -8 10 -18 10 -10 0 -24 9 -32 20 -8 11 -22 20 -32 20
-10 0 -18 5 -18 10 0 6 -8 10 -18 10 -10 0 -24 9 -32 20 -8 11 -21 20 -28 20
-8 0 -27 14 -42 30 -15 17 -33 30 -39 30 -17 0 -241 228 -241 245 0 8 -4 15
-10 15 -5 0 -10 9 -10 20 0 11 -4 20 -10 20 -5 0 -10 9 -10 20 0 11 -4 20 -10
20 -5 0 -10 9 -10 20 0 11 5 20 10 20 6 0 10 7 10 15 0 20 85 105 105 105 8 0
15 5 15 10 0 6 14 10 30 10 17 0 30 5 30 10 0 6 14 10 30 10 17 0 30 5 30 10
0 6 9 10 20 10 11 0 20 5 20 10 0 6 27 10 60 10 33 0 60 4 60 10 0 6 14 10 30
10 17 0 30 5 30 10 0 6 18 10 40 10 22 0 40 5 40 10 0 6 23 10 50 10 28 0 50
5 50 10 0 6 23 10 50 10 28 0 50 5 50 10 0 6 33 10 80 10 47 0 80 4 80 10 0 6
37 10 90 10 53 0 90 4 90 10 0 6 40 10 100 10 60 0 100 -4 100 -10z"/>
<path d="M15742 10708 c-8 -8 -7 -15 3 -24 15 -16 30 -81 45 -194 5 -41 23
-174 39 -295 61 -449 87 -812 77 -1105 -28 -810 -176 -1498 -446 -2066 -31
-67 -71 -142 -88 -166 -109 -159 169 63 372 297 129 148 313 443 384 615 13
30 27 64 32 75 21 51 52 138 79 225 94 305 134 550 145 885 12 384 -85 866
-241 1196 -50 106 -189 348 -206 360 -5 4 -7 11 -3 17 3 6 1 14 -5 18 -8 5 -9
3 -4 -6 5 -9 4 -11 -3 -6 -7 4 -12 11 -12 17 0 5 -9 18 -20 29 -12 12 -18 25
-15 31 4 5 3 8 -2 7 -4 -2 -8 -1 -8 2 0 9 -71 77 -92 88 -14 8 -23 8 -31 0z"/>
<path d="M1033 7043 c26 -2 68 -2 95 0 26 2 4 3 -48 3 -52 0 -74 -1 -47 -3z"/>
</g>
</svg>
