<svg version="1.1" id="Layer_1" xmlns="http://www.w3.org/2000/svg" xmlns:xlink="http://www.w3.org/1999/xlink" x="0px" y="0px"
	 width="100%" viewBox="0 0 1024 1024" enable-background="new 0 0 1024 1024" xml:space="preserve">
<path fill="none" opacity="1.000000" stroke="none" 
	d="
M1.000000,544.468628 
	C2.091835,545.548096 2.849985,546.876526 5.256254,545.159058 
	C7.917403,543.259705 11.127814,542.082764 14.186566,540.799988 
	C17.617182,539.361267 20.017088,537.042114 21.345608,533.574158 
	C23.014627,529.217346 24.675669,524.856873 26.408180,520.525208 
	C29.620447,512.493774 34.610905,506.668854 43.822598,505.212402 
	C52.706352,503.807800 61.009144,500.112030 69.656311,497.704681 
	C78.729126,495.178864 83.894165,487.604919 87.142265,479.128052 
	C90.383202,470.669922 91.462616,461.702271 91.947746,452.679169 
	C92.436012,443.597900 94.135399,434.997925 99.265999,427.088593 
	C105.603203,417.319183 110.601212,406.735596 116.321266,396.594177 
	C124.255775,382.526550 125.917580,367.350281 125.989670,351.724304 
	C126.014435,346.358154 126.971092,341.202484 128.311417,335.992126 
	C130.535904,327.344666 135.951889,320.838745 141.904465,314.825775 
	C157.246353,299.328247 169.122711,281.238281 181.081848,263.223969 
	C184.838684,257.564941 187.706696,251.275177 190.605606,245.097702 
	C194.171738,237.498428 198.542801,230.374985 204.021805,224.133499 
	C212.829437,214.100204 219.888275,202.753006 228.691925,192.710464 
	C242.511459,176.946167 259.236450,164.979813 277.160278,154.596268 
	C286.830200,148.994324 296.465485,143.299820 305.427277,136.717896 
	C313.420288,130.847504 322.224915,127.059052 331.456909,124.497879 
	C347.763123,119.974152 363.358582,114.276138 377.323883,104.421524 
	C387.634338,97.145935 399.670654,93.059319 411.548859,89.664543 
	C428.956299,84.689491 446.735229,80.564674 465.206390,82.041031 
	C491.380951,84.133110 517.303711,78.987640 543.419250,79.124329 
	C547.622009,79.146332 551.902283,79.347229 555.769531,80.620567 
	C567.417908,84.455925 579.626038,85.215790 591.492065,87.784172 
	C595.424683,88.635384 599.169312,89.798660 602.756104,91.716507 
	C607.051270,94.013100 611.687317,95.323349 616.678650,95.078499 
	C626.077637,94.617439 635.274719,95.506950 644.232300,98.736519 
	C648.123962,100.139618 652.287781,100.688637 656.453369,101.180397 
	C664.405518,102.119186 672.295105,103.518066 679.378784,107.657616 
	C689.111145,113.344994 700.044556,115.031258 710.901367,116.540855 
	C724.321228,118.406822 734.528625,124.228241 742.809998,135.441635 
	C748.831421,143.595016 757.432861,149.939072 765.276917,156.629013 
	C778.582947,167.977173 791.706482,179.491898 804.262817,191.684662 
	C812.508850,199.692017 821.223877,207.249924 828.087769,216.513229 
	C837.445129,229.141632 844.836609,242.955048 851.311462,257.251495 
	C857.568604,271.067322 865.338013,284.143555 871.148987,298.181549 
	C873.782288,304.543030 875.731873,311.099640 876.758667,317.846252 
	C878.327148,328.151825 881.744080,337.861511 885.224854,347.596802 
	C887.299011,353.397827 889.422485,359.225708 890.862000,365.200928 
	C895.540833,384.621368 905.868286,401.493958 915.055420,418.812042 
	C923.757080,435.215027 927.847717,452.448029 929.375183,470.848206 
	C931.085327,491.448975 936.937378,511.069214 948.416016,528.648987 
	C950.440674,531.749695 952.902344,534.338318 955.792358,536.697510 
	C965.321655,544.476501 969.783997,555.166016 971.862976,566.878357 
	C974.202454,580.058167 973.097290,592.981628 968.720398,605.786560 
	C963.782715,620.232239 965.688049,635.131775 967.550171,649.842834 
	C969.155273,662.524231 967.116028,674.739136 964.002991,686.892334 
	C962.287170,693.590820 956.766602,697.970093 953.257751,703.589478 
	C948.188721,711.707642 944.002380,720.174805 940.616699,729.024353 
	C936.747925,739.136414 931.473145,748.130371 923.765564,755.860779 
	C916.022156,763.627197 909.758362,772.668396 903.401062,781.592529 
	C900.777710,785.275085 897.578857,788.564148 893.957947,791.164307 
	C881.163086,800.352356 869.318176,810.651001 857.378906,820.889160 
	C852.433289,825.130066 846.593384,828.555481 841.088562,832.234131 
	C830.613342,839.234131 819.352722,845.032227 809.487305,852.984314 
	C805.492859,856.204102 801.125366,859.083313 796.595947,861.494324 
	C782.769165,868.854370 769.923767,877.741455 757.192688,886.753845 
	C747.429749,893.665161 738.129883,901.212280 728.038635,907.704224 
	C724.651611,909.883179 721.273438,912.306824 717.569397,913.393372 
	C702.889404,917.699524 689.031799,924.158569 674.637756,929.159546 
	C664.895691,932.544312 654.396667,934.025146 644.899292,937.696411 
	C621.507690,946.738464 596.775269,947.515198 572.571655,951.534363 
	C567.829407,952.321777 562.955872,952.505676 558.135559,952.602234 
	C537.686951,953.011902 517.259644,955.070435 496.775787,952.477051 
	C487.550873,951.309143 478.188873,950.837280 468.842621,951.085693 
	C451.115845,951.556885 433.656586,950.019226 416.305725,945.937256 
	C401.377167,942.425110 385.998108,941.013855 370.679749,941.126038 
	C352.379517,941.260010 334.558167,937.731567 316.558441,935.569946 
	C294.351227,932.903076 272.869995,926.856995 251.296646,921.188110 
	C239.872940,918.186279 228.100708,916.532654 216.617477,913.730835 
	C195.610077,908.605286 175.573578,901.526794 159.833755,885.486389 
	C153.566422,879.099487 144.568954,877.510742 136.270737,875.169006 
	C131.009842,873.684326 125.498871,872.574463 120.055809,872.344727 
	C105.148285,871.715515 92.586502,865.272888 80.153786,857.875793 
	C66.138603,849.536987 52.728985,840.197937 38.253868,832.621399 
	C32.335251,829.523560 28.898268,824.111206 26.264919,818.317932 
	C22.392899,809.799561 19.481136,800.957275 18.838881,791.484436 
	C18.420275,785.310242 16.612162,779.370178 15.218225,773.369507 
	C13.671378,766.710571 7.360275,764.245178 3.141850,759.944214 
	C2.985666,759.784912 2.035586,760.404236 1.227728,760.830322 
	C1.000000,688.979126 1.000000,616.958191 1.000000,544.468628 
M668.042053,263.472565 
	C631.411377,237.099396 590.257812,222.970398 545.524109,219.633820 
	C521.057861,217.808945 496.663971,220.174988 472.720612,225.911255 
	C429.711609,236.215210 392.443054,256.919586 361.506592,288.532043 
	C329.566895,321.169708 309.826202,360.793793 296.161682,403.932098 
	C285.631256,437.176117 280.348022,471.780060 269.287262,505.188141 
	C276.654205,497.700073 285.168823,492.353760 294.443970,488.067413 
	C326.811249,473.109436 359.375916,473.144226 391.105255,488.874176 
	C426.154816,506.250153 441.270508,537.038208 444.231506,574.642395 
	C445.316742,588.424683 443.576904,602.093079 440.378571,615.629028 
	C432.076904,650.763367 414.235626,680.234619 386.719452,703.238220 
	C368.191681,718.727478 346.514526,729.019287 322.761108,734.452454 
	C309.119141,737.572754 295.299286,739.127502 281.152222,739.145447 
	C282.058228,741.225647 283.791107,741.955627 285.283112,742.954895 
	C315.100037,762.924255 347.076630,778.152466 381.591125,788.299194 
	C414.919800,798.097229 448.896942,804.073730 483.481659,805.366760 
	C506.532288,806.228638 529.679199,806.546509 552.797791,803.869202 
	C576.125183,801.167603 599.108154,797.283264 621.599609,790.516296 
	C661.087891,778.635681 696.940735,760.304810 726.883545,731.428345 
	C739.567505,719.196045 750.660522,705.575684 758.665100,689.938782 
	C765.514404,676.558777 770.829285,662.400085 774.763306,647.778442 
	C781.286926,623.532532 786.212280,599.023315 786.575562,573.843811 
	C786.822632,556.719604 787.287842,539.563416 785.629089,522.466309 
	C784.782349,513.737732 783.383057,505.041107 782.992249,496.296143 
	C782.617859,487.918549 779.431580,479.732391 781.574341,471.152924 
	C782.324646,468.148743 781.907349,464.865082 781.122681,461.758148 
	C772.674744,428.309570 762.331116,395.514404 747.524048,364.257385 
	C728.839966,324.816223 703.788757,290.381317 668.042053,263.472565 
M296.757202,496.294525 
	C274.070251,506.877899 255.661469,522.125916 242.732971,543.959045 
	C233.454681,559.627869 225.529572,575.902466 218.113174,592.480042 
	C215.218338,598.950745 212.950043,605.726624 207.742371,611.023865 
	C205.350189,613.457092 203.590073,614.701782 200.736633,612.154053 
	C196.465088,608.340088 191.056046,607.007751 185.742798,605.685913 
	C177.214676,603.564331 169.620895,606.789734 165.551697,613.881287 
	C161.552185,620.851440 162.745712,628.053101 169.616776,634.593445 
	C173.452103,638.244141 177.884323,641.280090 182.144089,644.463928 
	C183.220398,645.268494 184.619766,645.643982 184.270020,647.369568 
	C183.921188,649.090637 182.557892,649.792969 181.063675,650.140930 
	C178.558670,650.724243 176.115784,649.955872 173.642471,649.634277 
	C163.545059,648.321350 154.070709,654.421814 151.174805,664.005249 
	C149.317413,670.151855 153.897522,677.615173 162.430710,681.302063 
	C165.759766,682.740479 166.257812,684.521973 165.183014,687.479614 
	C163.438934,692.278992 165.011841,696.223083 168.280273,699.793091 
	C171.260971,703.048889 174.899048,705.374512 178.771423,707.345520 
	C206.442902,721.429932 235.962952,728.670410 266.817078,730.576660 
	C283.634155,731.615601 300.252594,729.432373 316.600372,725.579834 
	C361.169373,715.076599 394.473724,689.566833 416.603119,649.559753 
	C426.447357,631.762634 431.968750,612.682190 433.881866,592.319641 
	C435.777130,572.146973 433.558929,552.938538 423.997498,534.958801 
	C406.976654,502.952057 378.805481,488.867249 343.929718,486.488770 
	C327.721100,485.383331 312.299774,489.687042 296.757202,496.294525 
M794.632446,588.914124 
	C792.267944,621.111145 784.830261,652.022400 770.194519,681.018555 
	C772.792358,681.953674 773.621948,680.706543 774.654236,679.937195 
	C782.090515,674.395569 788.101257,667.455322 793.293823,659.898132 
	C815.798462,627.145203 823.632263,591.010193 817.725281,551.793152 
	C814.618835,531.169495 807.183716,512.345703 794.500061,495.705566 
	C793.287903,494.115234 792.347229,491.918243 789.846069,491.904724 
	C788.900269,493.389893 789.267578,494.774597 789.429504,496.036682 
	C791.218628,509.985565 793.054260,523.922485 794.604065,537.907104 
	C796.460388,554.658447 796.098694,571.320618 794.632446,588.914124 
z"/>
<path fill="#FFFFFF" opacity="1.000000" stroke="none" 
	d="
M519.648987,438.167755 
	C510.313721,441.436920 502.575104,438.187164 495.419434,433.306061 
	C482.279297,424.342865 477.030579,411.299774 476.612000,395.800110 
	C476.348877,386.057739 478.433960,376.884399 484.006836,369.018890 
	C494.468811,354.252991 512.950867,348.533844 528.190308,363.769012 
	C539.286194,374.861755 544.011963,388.303497 543.291565,403.332886 
	C542.639038,416.947357 535.419434,432.793091 519.648987,438.167755 
z"/>
<path fill="none" opacity="1.000000" stroke="none" 
	d="
M707.402222,346.715942 
	C716.759094,361.552917 718.615967,376.674286 710.736450,392.299194 
	C706.064941,401.562622 695.453308,406.424225 687.638184,403.053497 
	C678.179993,398.974121 671.547241,391.828583 668.194336,382.180847 
	C664.877991,372.638153 664.392761,362.637695 666.723450,352.783936 
	C668.281433,346.196716 672.178650,340.749542 677.553406,336.560181 
	C683.595764,331.850433 692.880737,332.793976 699.964600,338.900635 
	C702.592957,341.166382 704.831909,343.883881 707.402222,346.715942 
z"/>
<path fill="none" opacity="1.000000" stroke="none" 
	d="
M651.659180,457.468628 
	C648.620789,462.021454 646.330078,466.584229 641.778931,469.572205 
	C637.135010,472.621124 632.587158,473.142944 627.738586,470.708557 
	C615.848206,464.738525 604.363647,458.218842 595.171204,448.251801 
	C587.474670,439.906677 588.604492,434.499451 599.440125,430.952118 
	C612.969666,426.522827 626.806152,423.565369 641.061157,422.544769 
	C645.828918,422.203400 650.430786,421.152832 655.308472,422.402283 
	C660.212585,423.658508 661.840942,426.627533 661.295105,431.142578 
	C660.348633,438.971832 657.010986,446.041321 653.877869,453.156372 
	C653.276978,454.520905 652.531799,455.821930 651.659180,457.468628 
z"/>
</svg>